<svg xml:space="preserve" viewBox="313.2 285.12 451.44 514.0799999999999" version="1.1" xmlns:xlink="http://www.w3.org/1999/xlink" xmlns="http://www.w3.org/2000/svg" style="max-height: 500px" width="451.44" height="514.0799999999999">
<desc>Created with Fabric.js 5.2.4</desc>
<defs>
</defs>
<g id="70d7a478-ca79-43d7-a528-80099a79f9f9" transform="matrix(1 0 0 1 540 540)">
<rect height="1080" width="1080" ry="0" rx="0" y="-540" x="-540" style="stroke: none; stroke-width: 1; stroke-dasharray: none; stroke-linecap: butt; stroke-dashoffset: 0; stroke-linejoin: miter; stroke-miterlimit: 4; fill: rgb(255,255,255); fill-rule: nonzero; opacity: 1; visibility: hidden;"/>
</g>
<g id="591f2dbc-4899-4b18-8585-d5d8bd15b041" transform="matrix(1 0 0 1 540 540)">
</g>
<g id="path2" transform="matrix(1 0 0 1 540 540)">
<path stroke-linecap="round" d="M 48 32 C 21.5 32 0 53.5 0 80 L 0 432 C 0 458.5 21.5 480 48 480 L 400 480 C 426.5 480 448 458.5 448 432 L 448 80 C 448 53.5 426.5 32 400 32 L 48 32 z M 207.79297 96 C 221.64286 95.990765 235.49191 96.065306 249.3418 96.304688 C 287.24422 192.07456 326.21734 287.4763 364.63477 383.0625 C 368.5023 394.00152 380.91729 396.8388 390.97266 398.86523 C 390.97266 404.57395 391.00781 410.28199 391.00781 415.99219 C 340.98742 415.95439 290.96725 416.02908 240.94531 415.95508 C 240.94531 410.20985 240.98047 404.50009 240.98047 398.79102 C 253.50488 397.83511 269.63835 398.57261 277.08008 386.23047 C 279.95403 376.65384 276.74937 366.67038 273.21289 357.75781 C 267.90871 344.53351 262.60415 331.30964 257.29883 318.12305 C 218.6585 317.97689 180.0583 318.23487 141.41797 318.01367 C 134.45651 334.25801 128.41379 350.87158 122.04102 367.33594 C 119.38971 374.59229 116.55398 384.24386 122.96289 390.43164 C 131.10332 397.35696 142.59601 397.17255 152.61523 398.71875 C 152.65123 404.46515 152.6513 410.21162 152.6875 415.99414 C 120.78869 415.95694 88.891007 416.06764 56.992188 415.91992 C 56.992187 410.24735 57.027344 404.57586 57.027344 398.93945 C 66.787415 396.91454 78.980872 394.51791 82.701172 383.79883 C 115.63242 299.66783 148.59941 215.50194 181.05078 131.1875 C 175.70932 119.69438 171.3987 107.76225 166.24219 96.195312 C 180.09207 96.102824 193.94308 96.009235 207.79297 96 z M 197.95703 169.5332 C 183.44421 208.98335 167.75343 248.02703 152.94531 287.36719 C 183.65281948058424 287.51332165562974 214.36085051941777 287.51332165562974 245.068360000002 287.36719 C 229.37659 248.10086 213.61265 208.83608 197.95703 169.5332 z" transform="translate(-224, -256)" style="stroke: rgb(0,0,0); stroke-width: 0; stroke-dasharray: none; stroke-linecap: butt; stroke-dashoffset: 0; stroke-linejoin: miter; stroke-miterlimit: 4; fill: rgb(0,0,0); fill-rule: nonzero; opacity: 1;"/>
</g>
<g id="64bdd1dc-f269-405f-99eb-6b26c2360c22" transform="matrix(5.41 0 0 5.41 534.53 534.53)">
<rect height="66.167" width="66.167" ry="0" rx="0" y="-33.0835" x="-33.0835" style="stroke: rgb(0,0,0); stroke-width: 0; stroke-dasharray: none; stroke-linecap: butt; stroke-dashoffset: 0; stroke-linejoin: miter; stroke-miterlimit: 4; fill: rgb(0,0,0); fill-rule: nonzero; opacity: 1;"/>
</g>
<g id="86d3e7f9-e358-4422-a0bd-9907631ce6a3" transform="matrix(7.41 0 0 7.41 540 540)">
<path stroke-linecap="round" d="M 28.324 20.044 C 28.281000000000002 19.938 28.240000000000002 19.830000000000002 28.193 19.724 C 27.486 18.122 26.537000000000003 16.727 25.345000000000002 15.533999999999999 C 24.157000000000004 14.347 22.763 13.408999999999999 21.161 12.729 C 19.556 12.050999999999998 17.852 11.709 16.057000000000002 11.709 C 14.207000000000003 11.709 12.493000000000002 12.051 10.920000000000002 12.729 C 9.453000000000001 13.357 8.156000000000002 14.216999999999999 7.010000000000002 15.280999999999999 L 7.010000000000002 14.84 C 7.010000000000002 13.283 5.748000000000001 12.018 4.190000000000001 12.018 L -15.584999999999997 12.018 C -17.141999999999996 12.018 -18.404999999999998 13.283000000000001 -18.404999999999998 14.84 C -18.404999999999998 16.399 -17.141 17.66 -15.584999999999997 17.66 L -0.04399999999999693 17.66 L -18.273999999999997 42.206 C -18.635999999999996 42.693000000000005 -18.830999999999996 43.283 -18.830999999999996 43.888000000000005 L -18.830999999999996 45.729000000000006 C -18.830999999999996 47.287000000000006 -17.566999999999997 48.55100000000001 -16.008999999999997 48.55100000000001 L 5.038 48.55100000000001 C 6.526 48.55100000000001 7.743 47.39800000000001 7.85 45.93700000000001 C 8.782 46.680000000000014 9.817 47.30100000000001 10.959 47.78500000000001 C 12.564 48.46900000000001 14.258 48.80600000000001 16.061 48.80600000000001 C 18.784 48.80600000000001 21.211 48.08000000000001 23.348 46.619000000000014 C 25.075 45.44300000000001 26.439999999999998 43.98000000000001 27.432 42.23000000000001 C 28.264799 40.75790600000001 28.850284 39.59664800000001 28.653889 38.50081800000001 C 28.480885999999998 37.535500000000006 27.958975 36.55439900000001 26.327023999999998 36.12246000000001 C 25.747024 36.12246000000001 24.950999999999997 36.29700000000001 24.494 36.61500000000001 C 24.031 36.93100000000001 23.701 37.35900000000001 23.512 37.89000000000001 L 23.059 38.82000000000001 C 22.428 40.18500000000001 21.493000000000002 41.263000000000005 20.25 42.06400000000001 C 19.012 42.867000000000004 17.617 43.26500000000001 16.062 43.26500000000001 C 15.039000000000001 43.26500000000001 14.058000000000002 43.074000000000005 13.107000000000001 42.68600000000001 C 12.166 42.29600000000001 11.349 41.751000000000005 10.668000000000001 41.04600000000001 C 9.986 40.343 9.441 39.526 9.027 38.603 C 8.617 37.679 8.41 36.71 8.41 35.687 L 8.41 33.211 L 26.125 33.211 C 26.125 33.211 27.642774 33.05634 28.308374999999998 32.440328 C 29.266871 31.553243000000002 29.172997 30.289948000000003 29.172997 30.289948000000003 C 29.172997 30.289948000000003 29.129457 25.223114000000002 28.834621 22.711794000000005 C 28.729048 21.812563 28.324 20.044 28.324 20.044 Z M -11.767 42.91 L 2.991 23.036 C 2.913 23.623 2.87 24.22 2.87 24.827 L 2.87 35.687 C 2.87 37.486 3.22 39.184999999999995 3.9290000000000003 40.791 C 4.257000000000001 41.543 4.648000000000001 42.248999999999995 5.085 42.91 C 5.069 42.91 5.054 42.909 5.038 42.909 L -11.767 42.909 Z M 23.71 27.667 L 8.409 27.667 L 8.409 24.826 C 8.409 23.811 8.598 22.836000000000002 8.989 21.914 C 9.38 20.992 9.925 20.174000000000003 10.634 19.470000000000002 C 11.331 18.767000000000003 12.15 18.221000000000004 13.072000000000001 17.829 C 13.994000000000002 17.441 14.992 17.248 16.062 17.248 C 17.082 17.248 18.064 17.441000000000003 19.011000000000003 17.829 C 19.960000000000004 18.222 20.775000000000002 18.767 21.452 19.47 C 22.134 20.174 22.677000000000003 20.991 23.093000000000004 21.913999999999998 C 23.507000000000005 22.836 23.710000000000004 23.81 23.710000000000004 24.825999999999997 z" transform="translate(-5.17, -30.26)" style="stroke: rgb(0,0,0); stroke-width: 0; stroke-dasharray: none; stroke-linecap: butt; stroke-dashoffset: 0; stroke-linejoin: miter; stroke-miterlimit: 4; fill: rgb(255,255,255); fill-rule: nonzero; opacity: 1;"/>
</g>
</svg>